<?xml version="1.0" encoding="utf-8"?>
<svg class="ionicon" viewBox="0 0 1024 1024" xmlns="http://www.w3.org/2000/svg">
    <path
        d="M 393.065 378.592 L 344.317 260.51 C 340.816 252.032 329.449 250.521 323.856 257.792 C 323.216 258.626 322.689 259.539 322.288 260.51 L 273.538 378.592 C 269.997 387.054 276.942 396.177 286.041 395.014 C 290.306 394.469 293.946 391.668 295.567 387.687 L 305.495 363.642 L 361.108 363.642 L 371.036 387.687 C 372.877 392.147 377.227 395.059 382.054 395.058 C 390.539 395.054 396.301 386.434 393.06 378.592 L 393.065 378.592 Z M 315.338 339.809 L 333.304 296.288 L 351.272 339.809 L 315.338 339.809 Z M 279.051 329.474 C 282.907 324.15 281.722 316.709 276.403 312.845 C 276.295 312.764 268.279 306.816 256.638 294.033 C 278.115 264.957 290.281 231.878 295.242 216.311 L 312.723 216.311 C 321.894 216.311 327.628 206.38 323.042 198.436 C 320.913 194.749 316.979 192.477 312.723 192.477 L 249.889 192.477 L 249.889 181.644 C 249.889 172.472 239.959 166.738 232.014 171.324 C 228.326 173.452 226.056 177.388 226.056 181.644 L 226.056 192.477 L 163.223 192.477 C 154.051 192.477 148.317 202.408 152.903 210.352 C 155.031 214.04 158.967 216.311 163.223 216.311 L 270.066 216.311 C 264.91 230.908 255.415 253.956 240.931 275.004 C 223.916 252.429 217.596 237.82 217.547 237.701 C 213.904 229.282 202.513 227.964 197.044 235.328 C 194.564 238.667 194.004 243.056 195.566 246.91 C 195.88 247.656 203.448 265.45 224.198 292.371 C 224.697 293.015 225.189 293.644 225.683 294.272 C 204.428 318.294 183.574 333.195 174.848 338.006 C 166.794 342.398 166.516 353.861 174.347 358.641 C 177.981 360.859 182.522 360.968 186.261 358.93 C 187.431 358.291 212.585 344.364 241.309 312.568 C 253.508 325.613 261.892 331.765 262.396 332.123 C 267.728 335.996 275.188 334.807 279.051 329.469 L 279.051 329.474 Z"
        style="" />
    <path
        d="M 122.678 174.629 C 51.667 174.629 -5.911 228.663 -5.911 295.261 C -5.911 361.86 51.667 415.895 122.678 415.895 C 162.046 415.895 196.751 399.333 225.028 375.683 M 453.342 415.895 C 524.355 415.895 581.932 361.86 581.932 295.261 C 581.932 228.663 524.355 174.629 453.342 174.629 C 414.804 174.629 378.996 191.909 350.994 214.839"
        fill="none" stroke-linecap="round" stroke-miterlimit="10" style="stroke: rgb(0, 0, 0); stroke-width: 24px;" />
</svg>