<?xml version="1.0" encoding="utf-8"?>
<svg class="ionicon" viewBox="0 0 512 512" xmlns="http://www.w3.org/2000/svg">
  <path d="M 332.782 318.398 L 296.505 230.523 C 293.9 224.214 285.439 223.089 281.277 228.5 C 280.801 229.121 280.41 229.801 280.111 230.523 L 243.832 318.398 C 241.197 324.695 246.365 331.485 253.136 330.619 C 256.31 330.213 259.02 328.129 260.226 325.166 L 267.614 307.273 L 309 307.273 L 316.388 325.166 C 317.759 328.486 320.996 330.653 324.588 330.652 C 330.902 330.648 335.191 324.234 332.778 318.398 L 332.782 318.398 Z M 274.939 289.536 L 288.309 257.149 L 301.68 289.536 L 274.939 289.536 Z M 247.935 281.845 C 250.804 277.883 249.922 272.346 245.964 269.471 C 245.883 269.409 239.918 264.983 231.255 255.47 C 247.238 233.833 256.292 209.215 259.984 197.631 L 272.992 197.631 C 279.817 197.631 284.084 190.24 280.673 184.328 C 279.088 181.585 276.16 179.893 272.992 179.893 L 226.232 179.893 L 226.232 171.832 C 226.232 165.007 218.843 160.74 212.93 164.152 C 210.186 165.735 208.497 168.664 208.497 171.832 L 208.497 179.893 L 161.736 179.893 C 154.912 179.893 150.644 187.284 154.057 193.196 C 155.641 195.941 158.569 197.631 161.736 197.631 L 241.248 197.631 C 237.412 208.494 230.345 225.646 219.567 241.309 C 206.904 224.509 202.2 213.638 202.165 213.549 C 199.453 207.284 190.977 206.303 186.906 211.783 C 185.06 214.267 184.644 217.534 185.806 220.402 C 186.04 220.958 191.672 234.2 207.113 254.234 C 207.485 254.713 207.85 255.181 208.219 255.648 C 192.402 273.525 176.883 284.614 170.388 288.194 C 164.395 291.463 164.188 299.993 170.016 303.55 C 172.719 305.202 176.099 305.282 178.881 303.766 C 179.752 303.291 198.472 292.926 219.847 269.264 C 228.925 278.972 235.164 283.55 235.54 283.816 C 239.508 286.699 245.06 285.814 247.935 281.841 L 247.935 281.845 Z" style="fill: rgb(255, 255, 255); fill-rule: nonzero;"/>
  <text style="white-space: pre; fill: rgb(51, 51, 51); font-family: Arial, sans-serif; font-size: 17.5px;" x="405.953" y="209.604"> </text>
  <path d="M 131.564 166.612 C 78.719 166.612 35.87 206.822 35.87 256.384 C 35.87 305.947 78.719 346.158 131.564 346.158 C 160.861 346.158 186.688 333.833 207.732 316.233 M 377.64 346.158 C 430.486 346.158 473.335 305.947 473.335 256.384 C 473.335 206.822 430.486 166.612 377.64 166.612 C 348.96 166.612 322.312 179.471 301.474 196.535" fill="none" stroke-linecap="round" stroke-miterlimit="10" style="stroke-width: 24px; stroke: rgb(255, 255, 255);"/>
</svg>